<svg width="18" height="22" viewBox="0 0 18 22" fill="none" xmlns="http://www.w3.org/2000/svg">
<g clip-path="url(#clip0_64_1923)">
<path d="M0.0102643 9.6111C0.0102643 6.71558 0.0205256 3.82006 0 0.924535C0 0.436157 0.136215 0.297174 0.606438 0.299104C4.7582 0.316477 8.90966 0.316477 13.0608 0.299104C13.2062 0.289882 13.3515 0.317399 13.4843 0.37928C13.6171 0.441161 13.7334 0.535545 13.823 0.654287C15.067 2.17733 16.3219 3.69137 17.5876 5.19639C17.8621 5.50094 18.0105 5.90455 18.0009 6.32082C17.9897 11.3291 17.9897 16.3316 17.9897 21.3341C17.9897 21.9972 17.9897 22.0001 17.3488 22.0001H0.835019C0.19686 22.0001 0.191262 22.0001 0.195927 21.3341C0.202457 20.2599 0.085836 20.3882 1.12144 20.3873C5.08661 20.3824 11.8507 20.3873 15.8168 20.3873C16.4279 20.3873 16.4298 20.3873 16.4298 19.7493C16.4298 15.471 16.4314 11.1921 16.4345 6.91248C16.4533 6.57564 16.3442 6.24452 16.1303 5.98977C15.0972 4.76722 14.0743 3.53501 13.0617 2.29315C12.9685 2.16749 12.8468 2.06752 12.7073 2.00204C12.5679 1.93656 12.415 1.9076 12.2622 1.9177C8.88851 1.93057 5.51454 1.93057 2.14026 1.9177C1.69336 1.9177 1.55995 2.0451 1.56088 2.51321C1.57581 7.70874 1.57021 14.989 1.57021 20.1846C1.57021 20.9992 1.57021 20.9992 0.793034 20.9992C0.638159 20.9992 0.482351 20.9934 0.326543 20.9992C0.11569 20.9992 0.0111952 20.9027 0.0139941 20.6787C0.0139941 20.5349 0.0139941 20.3892 0.0139941 20.2454L0.0102643 9.6111Z" fill="#053AC1"/>
<path d="M8.15689 15.2873C8.25952 15.073 8.21753 14.8945 8.21753 14.7236C8.21753 11.4102 8.22966 8.09675 8.21007 4.78234C8.21007 4.28914 8.35188 4.14243 8.81931 4.1598C9.92209 4.20323 9.77654 4.04205 9.77934 5.17902C9.78494 8.3641 9.78494 11.5492 9.77934 14.7342V15.3442C10.619 14.6204 11.3962 13.9804 12.1407 13.3068C12.4206 13.05 12.5876 13.0172 12.8405 13.3531C13.5449 14.2758 13.5542 14.2594 12.6846 15.0026C11.5931 15.934 10.5043 16.8682 9.42854 17.818C9.13559 18.0766 8.921 18.1317 8.59726 17.845C7.33493 16.7244 6.05115 15.6251 4.77204 14.5345C4.54812 14.3414 4.5052 14.1995 4.69273 13.9409C5.42885 12.9226 5.41859 12.9188 6.36743 13.7478C6.95334 14.2632 7.55045 14.7709 8.15689 15.2873Z" fill="#053AC1"/>
<path d="M0.766031 22C0.00938372 22 0.00938315 22 0.0103161 21.1671C0.0103161 20.3853 0.0103165 20.3824 0.815479 20.3863C1.65516 20.3863 1.56186 20.3264 1.57026 21.2665C1.57399 22 1.56933 22 0.766031 22Z" fill="#053AC1"/>
</g>
<defs>
<clipPath id="clip0_64_1923">
<rect width="18" height="21.7" fill="white" transform="translate(0 0.300049)"/>
</clipPath>
</defs>
</svg>
