<svg width="21" height="22" viewBox="0 0 21 22" fill="none" xmlns="http://www.w3.org/2000/svg">
<path d="M20.9999 11.1928C20.9999 14.602 20.9999 18.0112 20.9999 21.4203C20.9999 21.9993 20.9999 22.0019 20.4371 22.0019H0.559353C-0.00178162 22.0019 -0.00341797 22.0019 -0.00341797 21.4195C-0.00341797 14.5747 -0.00341797 7.72818 -0.00341797 0.88C-0.00341797 0.301006 -0.00341758 0.299316 0.559353 0.299316H20.4363C20.9966 0.299316 20.9982 0.299317 20.9982 0.880846C20.9999 4.31874 21.0004 7.75608 20.9999 11.1928ZM6.54288 11.148C6.54288 10.4034 6.53142 9.65788 6.5486 8.91322C6.55678 8.58949 6.4668 8.46608 6.13389 8.46946C4.67788 8.48552 3.22188 8.48299 1.76587 8.46946C1.46731 8.46946 1.35688 8.56498 1.36261 8.88025C1.37515 10.4017 1.37515 11.9203 1.36261 13.4361C1.36261 13.7632 1.49103 13.841 1.77732 13.8393C3.23333 13.8297 4.68933 13.8297 6.14534 13.8393C6.4439 13.8393 6.55433 13.7387 6.5486 13.4243C6.53061 12.667 6.54288 11.9079 6.54288 11.148ZM10.5011 8.48045C9.7649 8.48045 9.02872 8.48806 8.29744 8.47538C8.02424 8.47538 7.90563 8.5523 7.90727 8.85659C7.91763 10.3887 7.91763 11.9214 7.90727 13.4547C7.90727 13.7531 8.01688 13.8452 8.29253 13.8435C9.7649 13.8351 11.2345 13.8351 12.7014 13.8435C12.973 13.8435 13.0924 13.759 13.0908 13.4581C13.0804 11.926 13.0804 10.3935 13.0908 8.86081C13.0908 8.55991 12.9812 8.47031 12.7047 8.47538C11.971 8.48552 11.2364 8.48045 10.5011 8.48045ZM3.99487 15.2424C3.2456 15.2424 2.49551 15.2509 1.74624 15.2373C1.46895 15.2323 1.35934 15.3219 1.36097 15.6236C1.37133 17.1586 1.37133 18.6933 1.36097 20.2277C1.36097 20.5066 1.46404 20.5945 1.72416 20.5928C3.20961 20.5855 4.69479 20.5855 6.17969 20.5928C6.43899 20.5928 6.54533 20.5083 6.54369 20.2285C6.53551 18.6941 6.53551 17.1594 6.54369 15.6245C6.54369 15.3261 6.43818 15.2323 6.15924 15.2373C5.44188 15.2475 4.7196 15.2424 3.99487 15.2424ZM10.5387 15.2424C9.78944 15.2424 9.03935 15.2509 8.29008 15.2373C8.01279 15.2323 7.90318 15.3219 7.90481 15.6236C7.91517 17.1586 7.91517 18.6933 7.90481 20.2277C7.90481 20.5066 8.00788 20.5945 8.268 20.5928C9.75345 20.5855 11.2386 20.5855 12.7235 20.5928C12.9828 20.5928 13.0892 20.5083 13.0875 20.2285C13.0794 18.6941 13.0794 17.1594 13.0875 15.6245C13.0875 15.3261 12.982 15.2323 12.7031 15.2373C11.9849 15.2475 11.2626 15.2424 10.5387 15.2424ZM3.95479 7.06551C4.67625 7.06551 5.3977 7.05283 6.11834 7.07143C6.43081 7.07903 6.55106 6.9869 6.54778 6.64289C6.53252 5.16709 6.53252 3.69072 6.54778 2.2138C6.54778 1.87147 6.42509 1.78272 6.11589 1.78441C4.67406 1.79625 3.23169 1.79625 1.78878 1.78441C1.47631 1.78441 1.3577 1.87824 1.36097 2.21718C1.37515 3.69298 1.37515 5.16934 1.36097 6.64627C1.35688 6.99366 1.48449 7.07819 1.79287 7.06889C2.51432 7.0503 3.23578 7.06213 3.95724 7.06213L3.95479 7.06551ZM7.90972 4.43595C7.90972 5.16709 7.92199 5.89823 7.90399 6.62936C7.89581 6.95309 7.98579 7.07565 8.31871 7.07227C9.77471 7.05621 11.2307 7.05875 12.6867 7.07227C12.9853 7.07227 13.0957 6.97761 13.09 6.66148C13.0774 5.1716 13.0774 3.68114 13.09 2.19013C13.09 1.86387 12.9624 1.78611 12.6753 1.7878C11.2193 1.79738 9.76326 1.79738 8.30726 1.7878C8.0087 1.7878 7.89827 1.88838 7.90481 2.20281C7.92117 2.94156 7.91217 3.68706 7.91217 4.43257L7.90972 4.43595ZM14.4536 11.1202C14.4536 11.8657 14.4691 12.612 14.447 13.3567C14.4356 13.7193 14.537 13.8528 14.9043 13.8478C16.3071 13.8292 17.7099 13.8326 19.112 13.8478C19.4391 13.8478 19.5684 13.7472 19.5651 13.3922C19.5504 11.9 19.5504 10.4085 19.5651 8.91745C19.5651 8.59203 19.471 8.472 19.1447 8.47538C17.7148 8.48947 16.285 8.48947 14.8552 8.47538C14.5125 8.47116 14.4462 8.61569 14.4462 8.92759C14.465 9.65281 14.456 10.3848 14.456 11.1168L14.4536 11.1202ZM14.4536 17.9151C14.4536 18.6758 14.4617 19.4365 14.4495 20.193C14.4446 20.4753 14.5255 20.5962 14.8192 20.5945C16.2752 20.5838 17.7312 20.5838 19.1872 20.5945C19.4768 20.5945 19.5635 20.4787 19.5627 20.1956C19.5545 18.6741 19.5545 17.1555 19.5627 15.6397C19.5627 15.3574 19.4809 15.2365 19.1897 15.2382C17.7337 15.2483 16.2777 15.2483 14.8216 15.2382C14.5296 15.2382 14.4454 15.3531 14.4503 15.638C14.465 16.3928 14.456 17.1518 14.456 17.9117L14.4536 17.9151ZM17.0007 7.06213C17.7222 7.06213 18.4445 7.05452 19.1659 7.06213C19.4342 7.06636 19.5643 6.99113 19.5627 6.68431C19.5534 5.1792 19.5534 3.67354 19.5627 2.16731C19.5627 1.86978 19.4465 1.77765 19.1725 1.77934C17.729 1.78723 16.2856 1.78723 14.8421 1.77934C14.573 1.77934 14.447 1.85457 14.4487 2.16055C14.459 3.66678 14.459 5.17244 14.4487 6.67754C14.4487 6.97845 14.5591 7.0672 14.8356 7.06213C15.5595 7.05283 16.2809 7.06213 17.0007 7.06213Z" fill="#053AC1"/>
</svg>
