<?xml version="1.0" encoding="utf-8"?>
<!-- Generator: Adobe Illustrator 16.0.0, SVG Export Plug-In . SVG Version: 6.00 Build 0)  -->
<!DOCTYPE svg PUBLIC "-//W3C//DTD SVG 1.1//EN" "http://www.w3.org/Graphics/SVG/1.1/DTD/svg11.dtd">
<svg version="1.1" id="Layer_1" xmlns="http://www.w3.org/2000/svg" xmlns:xlink="http://www.w3.org/1999/xlink" x="0px" y="0px"
	 width="48px" height="48px" viewBox="0 0 48 48" enable-background="new 0 0 48 48" xml:space="preserve">
<path fill="#FFFFFF" d="M13.85,34.05H27.6v-3H13.85V34.05z M13.85,25.5h20.3v-3h-20.3V25.5z M13.85,16.95h20.3v-3h-20.3V16.95z
	 M9,42c-0.8,0-1.5-0.3-2.1-0.9C6.3,40.5,6,39.8,6,39V9c0-0.8,0.3-1.5,0.9-2.1S8.2,6,9,6h30c0.8,0,1.5,0.3,2.1,0.9
	C41.7,7.5,42,8.2,42,9v30c0,0.8-0.3,1.5-0.9,2.1C40.5,41.7,39.8,42,39,42H9z M9,39h30V9H9V39z M9,9v30V9z"/>
</svg>
