<?xml version="1.0" encoding="utf-8"?>
<!-- Generator: Adobe Illustrator 16.0.0, SVG Export Plug-In . SVG Version: 6.00 Build 0)  -->
<!DOCTYPE svg PUBLIC "-//W3C//DTD SVG 1.1//EN" "http://www.w3.org/Graphics/SVG/1.1/DTD/svg11.dtd">
<svg version="1.1" id="Layer_1" xmlns="http://www.w3.org/2000/svg" xmlns:xlink="http://www.w3.org/1999/xlink" x="0px" y="0px"
	 width="48px" height="48px" viewBox="0 0 48 48" enable-background="new 0 0 48 48" xml:space="preserve">
<path fill="#FFFFFF" d="M30.6,42L17.45,37.35L8.5,40.9c-0.566,0.3-1.125,0.283-1.675-0.051C6.275,40.517,6,40.017,6,39.35V11.45
	c0-0.434,0.125-0.817,0.375-1.15C6.625,9.967,6.95,9.717,7.35,9.55L17.45,6L30.6,10.6l8.9-3.55c0.566-0.267,1.125-0.241,1.675,0.075
	S42,7.934,42,8.6v28.25c0,0.367-0.125,0.684-0.375,0.95S41.066,38.267,40.7,38.4L30.6,42z M28.9,38.25V13l-9.8-3.3v25.25L28.9,38.25
	z M31.9,38.25L39,35.9V10.3L31.9,13V38.25z M9,37.65l7.1-2.7V9.7L9,12.05V37.65z M31.9,13v25.25V13z M16.1,9.7v25.25V9.7z"/>
</svg>
