<?xml version="1.0" encoding="utf-8"?>
<!-- Generator: Adobe Illustrator 16.0.0, SVG Export Plug-In . SVG Version: 6.00 Build 0)  -->
<!DOCTYPE svg PUBLIC "-//W3C//DTD SVG 1.1//EN" "http://www.w3.org/Graphics/SVG/1.1/DTD/svg11.dtd">
<svg version="1.1" id="Layer_1" xmlns="http://www.w3.org/2000/svg" xmlns:xlink="http://www.w3.org/1999/xlink" x="0px" y="0px"
	 width="12.927px" height="22.853px" viewBox="17.273 12.474 12.927 22.853" enable-background="new 17.273 12.474 12.927 22.853"
	 xml:space="preserve">
<path fill="#999999" d="M17.7,34.9c-0.267-0.334-0.409-0.7-0.425-1.101C17.258,33.4,17.4,33.05,17.7,32.75l8.8-8.8l-8.85-8.85
	c-0.267-0.267-0.392-0.625-0.375-1.075c0.017-0.45,0.159-0.808,0.425-1.075c0.333-0.333,0.691-0.492,1.075-0.475
	S19.5,12.65,19.8,12.95l9.95,9.95c0.166,0.167,0.283,0.333,0.35,0.5s0.101,0.35,0.101,0.55c0,0.2-0.034,0.383-0.101,0.55
	c-0.066,0.166-0.184,0.334-0.35,0.5l-9.9,9.9c-0.3,0.3-0.65,0.441-1.05,0.425C18.4,35.309,18.033,35.166,17.7,34.9z"/>
</svg>
