<?xml version="1.0" encoding="utf-8"?>
<!-- Generator: Adobe Illustrator 16.0.0, SVG Export Plug-In . SVG Version: 6.00 Build 0)  -->
<!DOCTYPE svg PUBLIC "-//W3C//DTD SVG 1.1//EN" "http://www.w3.org/Graphics/SVG/1.1/DTD/svg11.dtd">
<svg version="1.1" id="Layer_1" xmlns="http://www.w3.org/2000/svg" xmlns:xlink="http://www.w3.org/1999/xlink" x="0px" y="0px"
	 width="16px" height="16px" viewBox="0 0 16 16" enable-background="new 0 0 16 16" xml:space="preserve">
<path fill="#053AC1" d="M9.005,0c3.517,0,6.448,2.566,6.93,6.063c0.526,3.824-2.171,7.383-5.981,7.883
	c-1.744,0.23-3.364-0.129-4.835-1.104c-0.206-0.137-0.335-0.124-0.504,0.042c-0.889,0.889-1.785,1.77-2.679,2.652
	c-0.554,0.548-1.202,0.617-1.646,0.178c-0.339-0.334-0.489-1.033,0.163-1.65c0.897-0.848,1.744-1.749,2.631-2.611
	C3.3,11.24,3.302,11.098,3.138,10.85C0.305,6.549,2.94,0.759,8.042,0.054C8.361,0.017,8.683-0.001,9.005,0z M4.065,6.995
	c-0.071,2.493,1.959,4.962,4.937,4.952c2.777-0.007,4.929-2.158,4.934-4.937c0.005-2.798-2.175-4.959-4.949-4.953
	C5.96,2.065,3.996,4.573,4.065,6.995z"/>
</svg>
