<?xml version="1.0" encoding="utf-8"?>
<!-- Generator: Adobe Illustrator 16.0.0, SVG Export Plug-In . SVG Version: 6.00 Build 0)  -->
<!DOCTYPE svg PUBLIC "-//W3C//DTD SVG 1.1//EN" "http://www.w3.org/Graphics/SVG/1.1/DTD/svg11.dtd">
<svg version="1.1" id="Layer_1" xmlns="http://www.w3.org/2000/svg" xmlns:xlink="http://www.w3.org/1999/xlink" x="0px" y="0px"
	 width="16px" height="16px" viewBox="0 0 16 16" enable-background="new 0 0 16 16" xml:space="preserve">
<path fill="#053AC1" d="M16,10.207c0-0.465,0-0.931,0-1.396V8.796c0.01-0.173-0.014-0.347-0.068-0.512
	c-0.049-0.147-0.145-0.273-0.273-0.359c-0.129-0.085-0.283-0.125-0.438-0.113c-0.333,0.014-0.568,0.202-0.646,0.516
	c-0.042,0.188-0.063,0.381-0.059,0.575c0,0.719,0,1.438,0,2.158c0,0.653,0,1.306,0,1.957c0,1.005-0.491,1.492-1.495,1.493
	c-1.023,0-2.048,0-3.072,0c-2.277,0-4.633-0.007-6.951,0.016c-0.447,0-0.847-0.146-1.121-0.426
	c-0.274-0.279-0.409-0.655-0.397-1.097c0.031-1.17,0.024-2.361,0.018-3.509c0-0.496-0.006-0.992-0.006-1.488
	c0-0.519,0-1.037,0-1.557c0-1.159,0-2.358,0-3.537C1.495,1.989,1.989,1.496,2.92,1.496c0.553-0.003,1.116,0,1.66,0h1.139
	c0.135,0,0.274,0,0.412,0c0.431,0,0.877,0,1.316-0.02c0.465-0.023,0.75-0.305,0.742-0.735C8.184,0.333,7.903,0.062,7.438,0.016
	C7.363,0.009,7.29,0.009,7.218,0.009H5.999c-0.972,0-1.976,0-2.964,0C1.194,0.015,0.004,1.213,0.002,3.06c0,2.234,0,4.505,0,6.701
	c0,1.062,0,2.123,0,3.185c-0.004,0.305,0.03,0.609,0.102,0.906c0.345,1.343,1.439,2.146,2.925,2.146c1.691,0,3.383,0,5.061,0
	c1.634,0,3.257,0,4.859,0c1.845,0,3.041-1.193,3.048-3.036C16,12.042,16,11.108,16,10.207z"/>
<path fill="#053AC1" d="M5.25,6.637c-0.309,0.31-0.473,0.619-0.509,0.945c-0.105,1.029-0.076,2.06-0.029,3.023
	c0.021,0.455,0.281,0.689,0.769,0.697c0.317,0.004,0.642,0.004,0.954,0h0.432h0.372c0.265,0,0.536-0.006,0.803,0.004h0.071
	c0.498,0,0.922-0.182,1.295-0.555c0.648-0.65,1.297-1.299,1.946-1.945c1.278-1.277,2.601-2.597,3.895-3.902
	c1.009-1.017,1.005-2.626-0.009-3.664c-0.15-0.155-0.326-0.337-0.506-0.504c-1.022-0.974-2.6-0.969-3.588,0.01
	c-1.4,1.387-2.816,2.805-4.185,4.176C6.391,5.497,5.82,6.067,5.25,6.637z M14.525,3.112c0.037,0.481-0.271,0.761-0.622,1.085
	c-0.063,0.057-0.128,0.116-0.191,0.177L13.7,4.364l-0.019-0.02c-0.669-0.667-1.337-1.334-2.003-2.002l-0.016-0.015l-0.014-0.014
	c0.063-0.067,0.125-0.131,0.184-0.195c0.311-0.338,0.577-0.628,1.051-0.62c0.229,0.004,0.445,0.006,0.613,0.125
	c0.354,0.247,0.66,0.554,0.906,0.907c0.111,0.162,0.125,0.369,0.121,0.568L14.525,3.112L14.525,3.112z M6.171,7.924
	C6.174,7.868,6.188,7.811,6.214,7.76c0.024-0.05,0.061-0.095,0.104-0.131l0.485-0.484c1.225-1.223,2.491-2.487,3.731-3.737
	c0.023-0.025,0.049-0.048,0.078-0.067c0.005,0,0.029,0.011,0.089,0.072c0.719,0.735,1.325,1.341,1.91,1.909
	c0.027,0.024,0.05,0.054,0.067,0.086c0,0.005-0.009,0.031-0.082,0.104C11.263,6.834,9.868,8.23,8.448,9.658
	C8.39,9.725,8.317,9.777,8.235,9.813c-0.082,0.033-0.17,0.049-0.26,0.043C7.872,9.852,7.768,9.852,7.664,9.852H7.429H6.925
	c-0.209,0-0.427,0-0.642,0C6.249,9.855,6.216,9.85,6.186,9.834C6.171,9.805,6.165,9.771,6.169,9.74
	C6.174,9.123,6.173,8.486,6.171,7.924z"/>
</svg>
