<?xml version="1.0" encoding="utf-8"?>
<!-- Generator: Adobe Illustrator 16.0.0, SVG Export Plug-In . SVG Version: 6.00 Build 0)  -->
<!DOCTYPE svg PUBLIC "-//W3C//DTD SVG 1.1//EN" "http://www.w3.org/Graphics/SVG/1.1/DTD/svg11.dtd">
<svg version="1.1" id="Layer_1" xmlns="http://www.w3.org/2000/svg" xmlns:xlink="http://www.w3.org/1999/xlink" x="0px" y="0px"
	 width="8px" height="8px" viewBox="0 0 8 8" enable-background="new 0 0 8 8" xml:space="preserve">
<g>
	<defs>
		<rect id="SVGID_1_" width="8" height="8"/>
	</defs>
	<clipPath id="SVGID_2_">
		<use xlink:href="#SVGID_1_"  overflow="visible"/>
	</clipPath>
	<g clip-path="url(#SVGID_2_)">
		<path fill="#053AC1" d="M0.003,1.668c0.015-0.206-0.029-0.472,0.029-0.735C0.154,0.391,0.595,0.02,1.15,0.003
			c0.347-0.009,0.694-0.003,1.04,0c0.736,0,1.202,0.404,1.264,1.138c0.034,0.397,0.034,0.796,0,1.193
			C3.397,3.014,2.994,3.411,2.312,3.459C1.878,3.498,1.441,3.492,1.009,3.442C0.735,3.407,0.484,3.275,0.299,3.07
			C0.115,2.865,0.01,2.601,0.004,2.325C-0.003,2.126,0.003,1.927,0.003,1.668z"/>
		<path fill="#053AC1" d="M6.33,0.003c0.204,0.015,0.471-0.03,0.733,0.028c0.542,0.121,0.915,0.561,0.931,1.116
			c0.009,0.354,0.003,0.709,0,1.063c-0.003,0.702-0.398,1.161-1.092,1.24c-0.418,0.046-0.84,0.048-1.258,0.004
			C4.976,3.388,4.586,2.99,4.537,2.316c-0.038-0.434-0.033-0.87,0.017-1.303c0.034-0.274,0.165-0.526,0.37-0.711
			c0.204-0.185,0.469-0.291,0.744-0.297C5.871-0.003,6.07,0.003,6.33,0.003z"/>
		<path fill="#053AC1" d="M1.672,7.996c-0.201-0.014-0.467,0.031-0.73-0.027C0.388,7.848,0.016,7.404,0.004,6.836
			c-0.007-0.347-0.003-0.693,0-1.04c0.003-0.713,0.398-1.172,1.107-1.249c0.411-0.042,0.826-0.042,1.237,0
			c0.669,0.066,1.06,0.461,1.111,1.134c0.039,0.434,0.034,0.87-0.015,1.304C3.411,7.258,3.282,7.511,3.079,7.697
			C2.875,7.883,2.612,7.99,2.336,7.998C2.134,8.003,1.935,7.996,1.672,7.996z"/>
		<path fill="#053AC1" d="M4.544,6.274c0-0.322,0.249-0.576,0.587-0.602c0.167-0.014,0.371,0.07,0.492-0.044
			c0.12-0.115,0.035-0.323,0.049-0.488c0.025-0.348,0.286-0.604,0.615-0.594c0.33,0.01,0.555,0.258,0.563,0.614
			c0.012,0.493,0.012,0.493,0.516,0.514C7.74,5.69,7.998,5.938,7.994,6.279C7.99,6.62,7.727,6.85,7.346,6.854
			c-0.49,0.005-0.49,0.005-0.495,0.487C6.847,7.727,6.62,7.99,6.284,7.999c-0.349,0.009-0.6-0.255-0.612-0.644
			C5.656,6.864,5.656,6.864,5.166,6.854C4.799,6.844,4.545,6.608,4.544,6.274z"/>
	</g>
</g>
</svg>
