<?xml version="1.0" encoding="utf-8"?>
<!-- Generator: Adobe Illustrator 16.0.0, SVG Export Plug-In . SVG Version: 6.00 Build 0)  -->
<!DOCTYPE svg PUBLIC "-//W3C//DTD SVG 1.1//EN" "http://www.w3.org/Graphics/SVG/1.1/DTD/svg11.dtd">
<svg version="1.1" id="Layer_1" xmlns="http://www.w3.org/2000/svg" xmlns:xlink="http://www.w3.org/1999/xlink" x="0px" y="0px"
	 width="19px" height="20px" viewBox="0 0 19 20" enable-background="new 0 0 19 20" xml:space="preserve">
<g>
	<defs>
		<rect id="SVGID_1_" width="18.586" height="20"/>
	</defs>
	<clipPath id="SVGID_2_">
		<use xlink:href="#SVGID_1_"  overflow="visible"/>
	</clipPath>
	<g clip-path="url(#SVGID_2_)">
		<path fill="#FFFFFF" d="M0.001,9.991c0-2.051-0.005-4.102,0-6.154c-0.006-0.898,0.304-1.77,0.876-2.463
			C1.45,0.681,2.247,0.212,3.13,0.049C3.321,0.016,3.516,0,3.709,0.003c1.725-0.004,3.45-0.004,5.175,0
			c0.545,0,0.875,0.268,0.885,0.712c0.01,0.444-0.341,0.743-0.897,0.743c-1.647,0-3.295-0.014-4.942,0.007
			C2.881,1.479,2.095,1.947,1.66,2.938C1.525,3.245,1.504,3.562,1.504,3.891c0,4.076,0,8.152,0,12.23
			c0,1.435,0.992,2.414,2.432,2.422c1.608,0.01,3.217,0,4.826,0.004c0.156,0,0.311-0.013,0.46,0.049
			c0.15,0.064,0.275,0.174,0.357,0.314c0.083,0.141,0.118,0.303,0.1,0.465c-0.026,0.176-0.115,0.336-0.251,0.451
			s-0.309,0.176-0.486,0.172c-1.063,0.01-2.127,0.005-3.191,0.005c-0.649,0-1.298,0-1.946,0c-2.125-0.014-3.789-1.683-3.807-3.817
			V9.995L0.001,9.991z"/>
		<path fill="#FFFFFF" d="M15.928,10.729H5.314c-0.104,0-0.208,0-0.312,0c-0.522-0.01-0.872-0.312-0.856-0.748
			c0.013-0.42,0.35-0.707,0.856-0.707c3.359-0.003,6.718-0.003,10.077,0h0.856c0-0.185-0.133-0.243-0.217-0.328
			c-0.779-0.784-1.557-1.564-2.336-2.341c-0.227-0.226-0.355-0.481-0.285-0.804c0.094-0.436,0.592-0.675,1.012-0.494
			c0.174,0.088,0.328,0.209,0.457,0.356c1.193,1.194,2.387,2.389,3.58,3.583c0.594,0.594,0.596,0.918,0.009,1.507
			c-1.172,1.177-2.346,2.351-3.521,3.524c-0.091,0.093-0.187,0.181-0.287,0.264c-0.367,0.29-0.759,0.275-1.048-0.03
			c-0.288-0.306-0.279-0.718,0.043-1.05c0.706-0.725,1.424-1.438,2.144-2.148c0.165-0.163,0.357-0.298,0.537-0.445L15.928,10.729z"
			/>
	</g>
</g>
</svg>
