<?xml version="1.0" encoding="utf-8"?>
<!-- Generator: Adobe Illustrator 16.0.0, SVG Export Plug-In . SVG Version: 6.00 Build 0)  -->
<!DOCTYPE svg PUBLIC "-//W3C//DTD SVG 1.1//EN" "http://www.w3.org/Graphics/SVG/1.1/DTD/svg11.dtd">
<svg version="1.1" id="Layer_1" xmlns="http://www.w3.org/2000/svg" xmlns:xlink="http://www.w3.org/1999/xlink" x="0px" y="0px"
	 width="19px" height="20px" viewBox="0 0 19 20" enable-background="new 0 0 19 20" xml:space="preserve">
<g>
	<defs>
		<rect id="SVGID_1_" width="18.43" height="20"/>
	</defs>
	<clipPath id="SVGID_2_">
		<use xlink:href="#SVGID_1_"  overflow="visible"/>
	</clipPath>
	<g clip-path="url(#SVGID_2_)">
		<path fill="#FFFFFF" d="M5.585,2.774c0,1.57-1.215,2.805-2.77,2.805C2.447,5.582,2.083,5.512,1.742,5.374S1.092,5.03,0.83,4.772
			S0.361,4.206,0.218,3.867C0.076,3.528,0.001,3.164,0,2.796c-0.003-0.368,0.067-0.732,0.206-1.072
			c0.139-0.34,0.344-0.649,0.603-0.91c0.259-0.26,0.567-0.467,0.907-0.607c0.34-0.141,0.704-0.212,1.071-0.211
			C4.364-0.003,5.583,1.205,5.585,2.774z M2.813,4.081c0.745-0.006,1.325-0.584,1.308-1.308C4.107,2.067,3.478,1.455,2.781,1.47
			C2.433,1.483,2.105,1.633,1.868,1.888C1.63,2.142,1.503,2.479,1.513,2.827C1.525,3.556,2.07,4.081,2.813,4.081z"/>
		<path fill="#FFFFFF" d="M5.585,10.019c0.001,0.368-0.07,0.733-0.211,1.073c-0.141,0.341-0.348,0.65-0.608,0.91
			s-0.57,0.466-0.911,0.605s-0.706,0.211-1.074,0.208c-1.524-0.012-2.787-1.298-2.783-2.834c0.004-1.524,1.309-2.817,2.819-2.796
			C4.378,7.207,5.589,8.447,5.585,10.019z M1.513,9.989c-0.004,0.753,0.545,1.31,1.29,1.315c0.348-0.002,0.681-0.141,0.927-0.386
			c0.246-0.245,0.386-0.578,0.39-0.925C4.113,9.651,3.974,9.327,3.733,9.085c-0.241-0.242-0.565-0.38-0.907-0.389
			C2.076,8.691,1.518,9.24,1.513,9.989z"/>
		<path fill="#FFFFFF" d="M5.585,17.203c0,1.579-1.205,2.796-2.774,2.797c-0.368,0.004-0.732-0.064-1.073-0.203
			c-0.341-0.138-0.651-0.342-0.912-0.601s-0.469-0.566-0.61-0.905C0.073,17.951,0,17.588,0,17.22
			c-0.002-0.368,0.069-0.731,0.209-1.072s0.345-0.649,0.604-0.91c0.259-0.261,0.568-0.468,0.907-0.608
			c0.34-0.142,0.704-0.214,1.072-0.214c0.368-0.005,0.732,0.064,1.073,0.203c0.34,0.139,0.65,0.344,0.91,0.604
			c0.26,0.26,0.465,0.569,0.604,0.909S5.589,16.836,5.585,17.203z M1.51,17.203c-0.004,0.174,0.027,0.345,0.09,0.506
			c0.063,0.16,0.157,0.308,0.277,0.432s0.264,0.223,0.423,0.291s0.329,0.104,0.502,0.105c0.701,0,1.325-0.623,1.325-1.325
			c0-0.169-0.034-0.337-0.1-0.493c-0.065-0.156-0.161-0.298-0.281-0.417c-0.12-0.12-0.263-0.214-0.419-0.278
			s-0.324-0.097-0.494-0.096c-0.764-0.016-1.318,0.521-1.323,1.273V17.203z"/>
		<path fill="#FFFFFF" d="M12.803,3.401c-1.596,0-3.191,0-4.787,0c-0.353,0-0.645-0.1-0.8-0.437C7.17,2.869,7.145,2.766,7.143,2.661
			C7.141,2.556,7.161,2.452,7.203,2.355c0.042-0.097,0.104-0.183,0.183-0.252s0.171-0.122,0.272-0.152
			c0.201-0.055,0.409-0.077,0.616-0.064c2.997,0,5.993,0,8.991,0c0.193-0.003,0.389,0.015,0.578,0.053
			c0.391,0.087,0.611,0.395,0.584,0.758c-0.012,0.177-0.088,0.344-0.214,0.469c-0.125,0.125-0.292,0.202-0.469,0.214
			c-0.296,0.025-0.597,0.012-0.895,0.012L12.803,3.401z"/>
		<path fill="#FFFFFF" d="M12.656,17.967H8.021c-0.182,0-0.365,0.01-0.537-0.066c-0.304-0.135-0.468-0.368-0.468-0.701
			c0-0.334,0.178-0.562,0.491-0.679c0.187-0.058,0.383-0.079,0.578-0.066c3.038,0,6.076,0,9.117,0
			c0.168-0.005,0.336,0.011,0.501,0.044c0.175,0.031,0.332,0.128,0.438,0.271c0.107,0.142,0.156,0.319,0.137,0.497
			c-0.01,0.17-0.08,0.33-0.196,0.455c-0.116,0.124-0.272,0.203-0.442,0.224c-0.142,0.018-0.285,0.022-0.428,0.018
			C15.695,17.966,14.176,17.968,12.656,17.967z"/>
		<path fill="#FFFFFF" d="M12.662,9.271c1.598,0,3.194,0,4.79,0c0.533,0,0.823,0.26,0.828,0.717
			c0.006,0.091-0.007,0.182-0.036,0.269c-0.03,0.086-0.077,0.166-0.138,0.234s-0.134,0.123-0.216,0.163
			c-0.083,0.039-0.172,0.062-0.264,0.067c-0.116,0.008-0.232,0.01-0.35,0.006H8.006c-0.104,0-0.208,0-0.312-0.005
			c-0.184-0.009-0.356-0.089-0.483-0.221c-0.127-0.133-0.198-0.309-0.199-0.493C7.008,9.914,7.024,9.819,7.058,9.731
			c0.034-0.088,0.084-0.169,0.15-0.237s0.144-0.123,0.23-0.16c0.087-0.037,0.18-0.057,0.275-0.058
			C8.231,9.259,8.751,9.271,9.271,9.27L12.662,9.271z"/>
	</g>
</g>
</svg>
