<svg width="36" height="4" viewBox="0 0 36 4" fill="none" xmlns="http://www.w3.org/2000/svg">
<path d="M30.8997 3.99355C29.3612 3.94294 28.0502 3.55618 26.99 2.68504C26.6702 2.42358 26.493 2.38382 26.1256 2.66336C23.7617 4.45141 20.7408 4.43936 18.4144 2.64769C18.1017 2.40671 17.9275 2.379 17.5961 2.63443C15.2523 4.43574 12.2531 4.45863 9.88195 2.68142C9.48003 2.3802 9.28989 2.46575 8.95424 2.7236C6.26184 4.80324 1.99491 4.20441 0.303696 1.51871C0.169772 1.32863 0.0725393 1.12206 0.015585 0.906627C-0.0607644 0.529497 0.146685 0.240321 0.565887 0.0824803C1.00958 -0.0849991 1.36541 0.0475406 1.62471 0.363221C1.74572 0.510218 1.81054 0.688541 1.91282 0.845176C2.6331 1.92958 3.70919 2.54407 5.2261 2.53202C6.71419 2.51636 7.77586 1.91632 8.45004 0.828306C8.66901 0.475274 8.8822 0.146343 9.41809 0.12345C9.95398 0.100557 10.196 0.431897 10.4178 0.78252C11.1165 1.8862 12.22 2.50792 13.7153 2.50792C15.2394 2.50792 16.3644 1.8862 17.0444 0.736734C17.2475 0.394545 17.4766 0.117422 17.9937 0.105373C18.5109 0.0933246 18.75 0.370449 18.9531 0.707817C19.6374 1.8609 20.7899 2.4766 22.2938 2.47298C23.7977 2.46937 24.9415 1.83801 25.5984 0.665649C25.7929 0.318642 26.045 0.0282659 26.5492 0.0354952C27.0534 0.0427246 27.2939 0.329482 27.5072 0.66926C28.2116 1.79583 29.2992 2.41997 30.8536 2.41274C32.4079 2.40551 33.471 1.75487 34.1668 0.629504C34.527 0.0547726 34.9519 -0.119937 35.4633 0.0788694C36.0093 0.29093 36.1577 0.741553 35.8206 1.30906C34.8064 3.03927 33.098 3.88631 30.8997 3.99355Z" fill="white"/>
</svg>
